<svg width="230" height="54" viewBox="0 0 230 54" fill="none"
  xmlns="http://www.w3.org/2000/svg">
  <g clip-path="url(#clip0_107_50)">
    <path d="M79.4525 22.0648C76.9426 21.9036 74.4758 21.3347 72.1493 20.3807C70.8756 19.8546 69.7879 18.9615 69.0249 17.8156C68.4708 16.8695 68.1796 15.7929 68.1814 14.6969C68.1264 13.7689 68.3412 12.8447 68.7998 12.0356C69.2585 11.2264 69.9415 10.5668 70.7668 10.1358C73.0449 8.95117 75.5982 8.39407 78.1637 8.52192C79.6216 8.49046 81.0735 8.71749 82.4519 9.19244C83.5941 9.59885 84.6527 10.2091 85.5763 10.9935C86.4958 11.8022 87.263 12.7686 87.8414 13.8471C88.4508 14.9031 89.4391 15.6889 90.6065 16.0457C91.2128 16.2526 91.8582 16.3194 92.4941 16.241C93.1301 16.1627 93.7399 15.9413 94.2776 15.5935C94.7713 15.2873 95.1893 14.8737 95.5003 14.3836C95.8114 13.8936 96.0076 13.3397 96.0741 12.7633C96.1909 11.5593 95.8783 10.3528 95.1915 9.35617C94.0964 7.54684 92.7351 5.91207 91.1532 4.50662C89.545 3.09848 87.6919 1.99652 85.6856 1.25539C83.343 0.434904 80.8724 0.0388441 78.3902 0.0858822C75.126 0.0307989 71.8788 0.567052 68.8062 1.66861C66.0643 2.63184 63.635 4.31849 61.7764 6.54935C59.9916 8.81386 59.0551 11.6294 59.1285 14.5098C59.105 16.5439 59.5424 18.557 60.408 20.3985C61.2737 22.2401 62.5452 23.8625 64.1275 25.1445C67.3534 27.9201 71.8134 29.5964 77.406 30.1344C81.1865 30.532 83.8969 31.5378 85.4747 33.1283C86.2033 33.8004 86.7868 34.6138 87.1897 35.5187C87.5926 36.4235 87.8064 37.4009 87.818 38.3911C87.8661 39.7587 87.3977 41.0944 86.5058 42.1335C85.4861 43.2559 84.1993 44.1033 82.7643 44.5973C81.0718 45.2077 79.2837 45.5114 77.4842 45.4939C75.8151 45.4994 74.1561 45.2361 72.5711 44.7142C71.1678 44.265 69.8483 43.588 68.6656 42.7105C67.7179 42.0637 66.9386 41.2003 66.3927 40.1921C65.9215 39.1941 65.1409 38.374 64.1666 37.8531C63.1251 37.2958 61.9127 37.1468 60.767 37.4353C59.6212 37.7237 58.6246 38.4288 57.9725 39.4125C57.6511 39.9522 57.4731 40.5649 57.4553 41.1926C57.4376 41.8202 57.5806 42.442 57.871 42.999C58.8498 45.2564 60.358 47.2459 62.2685 48.7997C64.315 50.4822 66.6524 51.777 69.1655 52.6201C71.8369 53.5225 74.6406 53.9731 77.4607 53.9533C79.8359 53.957 82.2007 53.6396 84.4905 53.0099C86.7101 52.4132 88.805 51.4258 90.6768 50.094C92.4915 48.7938 93.9981 47.1117 95.0899 45.1664C96.2433 43.0289 96.827 40.6314 96.7849 38.204C96.7849 33.6195 95.2227 29.8615 92.0984 27.0391C88.974 24.2167 84.803 22.6106 79.4525 22.0648Z" fill="#7C4DFF"/>
    <path d="M77.4609 54.0001C74.6445 54.0126 71.846 53.5541 69.1814 52.6435C66.6625 51.7991 64.3197 50.5016 62.2687 48.8153C60.3557 47.2589 58.845 45.2669 57.8634 43.0067C57.5675 42.4431 57.4214 41.813 57.4392 41.1769C57.457 40.5407 57.638 39.9198 57.9649 39.3735C58.628 38.3872 59.6342 37.6816 60.7887 37.3935C61.9431 37.1054 63.1636 37.2553 64.2136 37.8141C65.2013 38.3516 65.9879 39.1942 66.4554 40.2155C66.9767 41.2077 67.7229 42.0647 68.6346 42.7183C69.8186 43.5919 71.1379 44.2661 72.5401 44.7142C74.1197 45.2362 75.7736 45.4995 77.4375 45.4939C79.2314 45.5133 81.0143 45.2123 82.7021 44.6051C84.1404 44.0984 85.4273 43.2376 86.4435 42.1023C87.3325 41.0711 87.7984 39.7428 87.7479 38.3833C87.7353 37.3979 87.5209 36.4254 87.1179 35.5258C86.7149 34.6261 86.1319 33.8182 85.4046 33.1517C83.8424 31.5924 81.1321 30.5632 77.3594 30.1656C71.8605 29.6276 67.3692 27.9591 64.1277 25.1835C62.5413 23.8955 61.2664 22.2668 60.3982 20.4187C59.5299 18.5707 59.0907 16.5508 59.1131 14.5098C59.0401 11.6173 59.9823 8.79043 61.7766 6.51814C63.6326 4.28267 66.0626 2.59291 68.8065 1.6296C71.8655 0.513155 75.1023 -0.038989 78.3592 9.28997e-05C80.8469 -0.0437959 83.3225 0.354861 85.6702 1.1774C87.6932 1.91655 89.5626 3.02132 91.1847 4.43642C92.771 5.84268 94.1351 7.48031 95.2308 9.29377C95.9411 10.307 96.2652 11.5403 96.1446 12.7711C96.071 13.3472 95.8694 13.8995 95.5546 14.3878C95.2397 14.8761 94.8195 15.2881 94.3247 15.5935C93.7832 15.946 93.1687 16.1712 92.5274 16.2522C91.8861 16.3333 91.2347 16.268 90.6223 16.0613C89.4244 15.7065 88.4092 14.9052 87.787 13.8237C87.2085 12.7519 86.4442 11.7911 85.5296 10.9857C84.6083 10.1981 83.5491 9.58749 82.4052 9.18461C81.0308 8.71619 79.5847 8.49189 78.1327 8.52189H77.8124C75.3694 8.44096 72.9471 8.99438 70.7826 10.128C69.9559 10.5537 69.2707 11.2098 68.8104 12.0167C68.35 12.8236 68.1343 13.7466 68.1894 14.6735C68.1838 15.77 68.4753 16.8475 69.033 17.7922C69.7944 18.934 70.8833 19.8199 72.1573 20.3339C74.4765 21.295 76.9389 21.8667 79.4449 22.0258C84.811 22.5638 89.0758 24.2401 92.1298 27.0079C95.1839 29.7757 96.8164 33.6039 96.8164 38.204C96.8757 40.6478 96.2999 43.0654 95.1448 45.221C94.0497 47.173 92.5377 48.8606 90.7161 50.1641C88.8404 51.5025 86.74 52.4953 84.5142 53.0957C82.2141 53.7103 79.8419 54.0145 77.4609 54.0001ZM62.0266 37.2839C61.7165 37.283 61.4073 37.317 61.1049 37.3853C60.4763 37.4797 59.8761 37.7109 59.347 38.0625C58.8179 38.4142 58.3727 38.8777 58.043 39.4202C57.725 39.9541 57.5488 40.5601 57.5311 41.1808C57.5133 41.8016 57.6546 42.4167 57.9415 42.9678C58.9208 45.2163 60.4261 47.1975 62.3312 48.7451C64.3705 50.4277 66.7034 51.7202 69.2126 52.5577C71.8672 53.4652 74.655 53.9237 77.4609 53.9143C79.836 53.916 82.2005 53.5987 84.4908 52.9709C86.7059 52.369 88.7974 51.3819 90.6692 50.055C92.4769 48.7579 93.9779 47.0813 95.0667 45.143C96.2083 43.0107 96.7812 40.6211 96.7304 38.204C96.8017 36.1215 96.4196 34.0484 95.6105 32.1276C94.8014 30.2068 93.5846 28.484 92.0439 27.0781C89.0055 24.318 84.7563 22.6495 79.4137 22.1116C76.8978 21.9508 74.4254 21.3792 72.0948 20.4197C70.8198 19.8881 69.7322 18.9897 68.9705 17.839C68.4143 16.8933 68.1204 15.8169 68.1191 14.7203C68.062 13.7779 68.2804 12.8393 68.7477 12.0185C69.215 11.1978 69.9111 10.5301 70.7514 10.0968C72.9371 8.95064 75.3839 8.39176 77.8515 8.47511H78.1717C79.634 8.44531 81.0903 8.66956 82.4755 9.13783C83.6175 9.55192 84.6757 10.1672 85.5999 10.9545C86.5202 11.7674 87.2897 12.7361 87.8729 13.8159C88.4823 14.8782 89.4781 15.6655 90.6536 16.0145C91.2504 16.2213 91.8864 16.2909 92.514 16.218C93.1415 16.1451 93.7445 15.9316 94.2778 15.5935C94.7723 15.2881 95.1908 14.8748 95.502 14.3845C95.8132 13.8943 96.0089 13.34 96.0743 12.7633C96.1818 11.5544 95.8551 10.3467 95.1526 9.35614C94.0599 7.5497 92.7012 5.91754 91.1222 4.51439C89.5127 3.11002 87.6597 2.01085 85.6546 1.27096C83.3118 0.45041 80.8416 0.0517836 78.3592 0.0936534C75.1086 0.0521587 71.8773 0.598965 68.8221 1.70757C66.1009 2.67339 63.6912 4.35417 61.8469 6.57272C60.0648 8.8292 59.1307 11.6374 59.2069 14.5098C59.1839 16.5377 59.6201 18.5446 60.483 20.3807C61.3459 22.2168 62.6132 23.8346 64.1902 25.1133C67.4083 27.8811 71.8605 29.5496 77.3985 30.0876C81.1946 30.4852 83.9128 31.4988 85.4984 33.0971C86.2292 33.774 86.8141 34.5926 87.217 35.5029C87.6199 36.4132 87.8325 37.396 87.8416 38.3911C87.8955 39.7703 87.4238 41.1187 86.5216 42.1647C85.5036 43.2853 84.2236 44.137 82.7958 44.644C81.0974 45.2519 79.3041 45.5528 77.5 45.5329C75.8284 45.5391 74.1667 45.2758 72.5791 44.7532C71.1603 44.303 69.8251 43.6235 68.6268 42.7416C67.6928 42.0875 66.9272 41.2218 66.3929 40.2155C65.9278 39.221 65.1559 38.4013 64.1902 37.8765C63.5307 37.4998 62.7864 37.2959 62.0266 37.2839Z" fill="#7C4DFF"/>
    <path d="M229.172 48.1447C228.903 47.8356 228.571 47.5879 228.197 47.4184C227.824 47.2489 227.419 47.1616 227.008 47.1623H225.595C225.34 47.1645 225.089 47.1045 224.863 46.9876C224.637 46.8708 224.443 46.7006 224.298 46.4918C223.849 45.9198 223.622 45.2058 223.657 44.4803V35.4673H226.001C226.822 35.4971 227.622 35.203 228.227 34.6486C228.524 34.3814 228.761 34.0541 228.921 33.6884C229.081 33.3227 229.161 32.927 229.156 32.5279C229.167 32.1142 229.09 31.7029 228.93 31.3212C228.77 30.9394 228.53 30.596 228.227 30.3137C227.622 29.7592 226.822 29.4651 226.001 29.495H223.657V24.7468C223.664 24.3144 223.585 23.885 223.424 23.4835C223.263 23.082 223.024 22.7163 222.72 22.4078C222.085 21.8142 221.247 21.4839 220.377 21.4839C219.507 21.4839 218.669 21.8142 218.034 22.4078C217.73 22.7163 217.491 23.082 217.33 23.4835C217.169 23.885 217.09 24.3144 217.096 24.7468V29.495H216.362C215.542 29.4709 214.744 29.7643 214.136 30.3137C213.839 30.5988 213.605 30.9435 213.45 31.325C213.295 31.7066 213.223 32.1165 213.238 32.5279C213.233 32.9263 213.312 33.3213 213.471 33.6868C213.63 34.0523 213.865 34.3801 214.159 34.6486C214.764 35.189 215.551 35.4814 216.362 35.4673H217.057V44.4803C217.032 46.1056 217.407 47.7122 218.151 49.1583C218.845 50.5203 219.891 51.6723 221.181 52.4953C222.49 53.3256 224.013 53.7589 225.563 53.7428H226.344C227.263 53.7579 228.155 53.4424 228.86 52.8539C229.213 52.5583 229.496 52.1882 229.689 51.7704C229.882 51.3525 229.981 50.8971 229.977 50.437C230.005 49.5994 229.718 48.7816 229.172 48.1447Z" fill="#448AFF"/>
    <path d="M150.243 0.654993C149.404 0.645898 148.579 0.871977 147.862 1.30752C147.146 1.74306 146.566 2.37059 146.189 3.11875L128.614 39.1941L110.532 3.06418C110.154 2.32929 109.578 1.71439 108.869 1.28874C108.159 0.863087 107.345 0.643598 106.517 0.654993C105.922 0.642822 105.33 0.748908 104.777 0.967084C104.223 1.18526 103.718 1.51117 103.291 1.92586C102.854 2.35118 102.509 2.86244 102.279 3.42739C102.049 3.99235 101.939 4.59872 101.956 5.20827V48.7919C101.956 49.9995 102.436 51.1576 103.292 52.0115C104.147 52.8654 105.308 53.3451 106.517 53.3451C107.727 53.3451 108.887 52.8654 109.743 52.0115C110.598 51.1576 111.079 49.9995 111.079 48.7919V22.5014L124.193 48.7373C124.543 49.55 125.129 50.2392 125.875 50.716C126.622 51.1927 127.494 51.435 128.38 51.4116C129.168 51.4116 129.943 51.2068 130.628 50.8171C131.313 50.4275 131.884 49.8665 132.286 49.1895L145.673 21.979V48.7919C145.671 49.6898 145.935 50.5683 146.432 51.3166C146.93 52.0648 147.638 52.6493 148.468 52.9962C149.297 53.3432 150.211 53.4371 151.094 53.2661C151.978 53.095 152.79 52.6668 153.43 52.0353C153.871 51.6195 154.221 51.1162 154.456 50.5577C154.692 49.9992 154.808 49.3977 154.797 48.7919V5.20827C154.813 4.59872 154.703 3.99235 154.473 3.42739C154.243 2.86244 153.899 2.35118 153.461 1.92586C153.035 1.51211 152.532 1.18675 151.979 0.968599C151.427 0.750452 150.837 0.643859 150.243 0.654993Z" fill="#7C4DFF"/>
    <path d="M150.243 53.3919C149.636 53.3982 149.034 53.2835 148.472 53.0545C147.91 52.8256 147.399 52.487 146.97 52.0585C146.541 51.6301 146.202 51.1205 145.972 50.5596C145.743 49.9987 145.628 49.3977 145.634 48.7919V22.1739L132.356 49.2129C131.948 49.9019 131.366 50.472 130.669 50.8661C129.971 51.2601 129.182 51.4644 128.38 51.4583C127.492 51.474 126.619 51.2249 125.873 50.743C125.128 50.2611 124.543 49.5682 124.193 48.7529L111.126 22.6963V48.7919C111.126 50.0119 110.64 51.1819 109.776 52.0446C108.912 52.9073 107.74 53.3919 106.517 53.3919C105.295 53.3919 104.123 52.9073 103.259 52.0446C102.394 51.1819 101.909 50.0119 101.909 48.7919V5.20827C101.891 4.59251 102.002 3.97977 102.234 3.40921C102.467 2.83864 102.816 2.32281 103.26 1.89467C103.691 1.47589 104.201 1.14654 104.76 0.925721C105.319 0.704898 105.916 0.59698 106.517 0.608217C107.353 0.597126 108.175 0.818919 108.891 1.24866C109.607 1.67839 110.189 2.29903 110.571 3.04079L128.614 39.1084L146.15 3.11876C146.487 2.48255 146.967 1.93255 147.551 1.51155C148.136 1.09056 148.81 0.809919 149.521 0.691479C150.233 0.573039 150.962 0.619988 151.652 0.828675C152.342 1.03736 152.974 1.40216 153.5 1.89467C153.944 2.32281 154.293 2.83864 154.526 3.40921C154.758 3.97977 154.869 4.59251 154.851 5.20827V48.7919C154.86 49.4046 154.742 50.0127 154.504 50.5776C154.266 51.1425 153.914 51.6522 153.469 52.0743C153.045 52.4963 152.542 52.8302 151.988 53.0564C151.434 53.2826 150.841 53.3967 150.243 53.3919ZM145.728 21.8309V48.7919C145.729 49.6795 145.992 50.5471 146.485 51.286C146.977 52.0248 147.678 52.602 148.498 52.9451C149.318 53.2882 150.221 53.3819 151.094 53.2145C151.968 53.0471 152.772 52.626 153.406 52.0041C153.843 51.592 154.189 51.0934 154.421 50.5403C154.654 49.9872 154.769 49.3917 154.757 48.7919V5.20827C154.776 4.60569 154.668 4.0059 154.441 3.44736C154.213 2.88882 153.872 2.38386 153.437 1.96484C152.925 1.47608 152.305 1.11309 151.628 0.904585C150.95 0.696079 150.234 0.647777 149.534 0.763499C148.835 0.879221 148.172 1.15579 147.598 1.57134C147.024 1.98688 146.555 2.53 146.228 3.15774L128.614 39.3111L128.568 39.2253L110.493 3.11876C110.158 2.503 109.685 1.97256 109.112 1.5686C108.538 1.16465 107.879 0.898032 107.186 0.789447C106.492 0.680861 105.783 0.733225 105.113 0.942475C104.443 1.15173 103.83 1.51223 103.323 1.99603C102.888 2.41504 102.547 2.92001 102.319 3.47854C102.092 4.03708 101.984 4.63687 102.003 5.23946V48.8231C101.977 49.4311 102.075 50.0381 102.291 50.6073C102.507 51.1766 102.835 51.6965 103.258 52.1357C103.68 52.5749 104.186 52.9244 104.747 53.1631C105.308 53.4019 105.911 53.5249 106.521 53.5249C107.131 53.5249 107.734 53.4019 108.295 53.1631C108.856 52.9244 109.363 52.5749 109.785 52.1357C110.207 51.6965 110.536 51.1766 110.751 50.6073C110.967 50.0381 111.065 49.4311 111.04 48.8231V22.3143L111.118 22.4858L124.24 48.7139C124.584 49.5198 125.162 50.2037 125.901 50.6765C126.639 51.1494 127.503 51.3892 128.38 51.3648C129.167 51.3727 129.942 51.1737 130.628 50.7878C131.313 50.4018 131.885 49.8425 132.285 49.1661L145.728 21.8309Z" fill="#7C4DFF"/>
    <path d="M185.376 1.41136C185.068 1.11688 184.696 0.898433 184.288 0.773484C183.88 0.648535 183.449 0.620552 183.028 0.691773C182.608 0.762995 182.21 0.931445 181.866 1.18365C181.522 1.43586 181.243 1.76483 181.049 2.14425L173.746 17.1529L166.216 2.07408C165.987 1.64249 165.644 1.28191 165.224 1.03168C164.804 0.781455 164.323 0.651185 163.834 0.655082C163.118 0.654142 162.431 0.934185 161.92 1.43475C161.664 1.6909 161.462 1.99652 161.328 2.33298C161.194 2.66944 161.129 3.02968 161.139 3.39173V22.9615C161.119 23.3295 161.175 23.6977 161.302 24.0436C161.43 24.3895 161.627 24.7058 161.881 24.9733C162.135 25.2408 162.44 25.4538 162.78 25.5994C163.119 25.745 163.484 25.8201 163.853 25.8201C164.223 25.8201 164.588 25.745 164.927 25.5994C165.266 25.4538 165.572 25.2408 165.826 24.9733C166.08 24.7058 166.277 24.3895 166.405 24.0436C166.532 23.6977 166.588 23.3295 166.568 22.9615V13.9563L171.192 23.2032C171.404 23.6779 171.753 24.0793 172.193 24.3568C172.634 24.6343 173.147 24.7754 173.668 24.7625C174.138 24.7686 174.602 24.6516 175.013 24.4231C175.424 24.1947 175.768 23.8628 176.011 23.4605L180.799 13.7458V22.9381C180.797 23.2946 180.866 23.648 181.002 23.9777C181.138 24.3074 181.338 24.6068 181.591 24.8585C181.844 25.1103 182.145 25.3093 182.475 25.4441C182.806 25.5788 183.16 25.6466 183.517 25.6435C184.228 25.6429 184.91 25.3628 185.415 24.8639C185.671 24.6115 185.871 24.3099 186.006 23.9774C186.14 23.645 186.205 23.2887 186.197 22.9303V3.36834C186.203 3.00329 186.133 2.64093 185.992 2.30412C185.851 1.9673 185.641 1.66333 185.376 1.41136Z" fill="#7C4DFF"/>
    <path d="M183.47 25.7293C183.107 25.7314 182.747 25.6616 182.412 25.5241C182.076 25.3867 181.77 25.1841 181.513 24.9283C181.256 24.6724 181.053 24.3682 180.914 24.0333C180.775 23.6984 180.704 23.3394 180.705 22.9771V13.9563L176.019 23.4994C175.775 23.903 175.432 24.237 175.021 24.4692C174.611 24.7014 174.147 24.8239 173.675 24.8249C173.143 24.837 172.619 24.6908 172.169 24.4048C171.72 24.1188 171.366 23.706 171.153 23.2188L166.614 14.1434V22.9381C166.614 23.668 166.324 24.3681 165.807 24.8842C165.29 25.4003 164.588 25.6903 163.857 25.6903C163.126 25.6903 162.425 25.4003 161.908 24.8842C161.39 24.3681 161.1 23.668 161.1 22.9381V3.36834C161.089 3.00144 161.152 2.63606 161.286 2.29433C161.421 1.95259 161.623 1.6416 161.881 1.38018C162.402 0.875597 163.1 0.595567 163.826 0.600509C164.323 0.596032 164.812 0.728236 165.239 0.982646C165.666 1.23706 166.015 1.60386 166.247 2.0429L173.738 17.0204L181.002 2.12087C181.195 1.73182 181.476 1.39339 181.824 1.1329C182.171 0.872409 182.575 0.69715 183.003 0.621268C183.431 0.545386 183.871 0.571007 184.288 0.696064C184.704 0.821122 185.085 1.04211 185.4 1.3412C185.66 1.60125 185.863 1.91201 185.998 2.25407C186.132 2.59614 186.194 2.96218 186.181 3.32936V22.8991C186.184 23.2656 186.112 23.629 185.97 23.9668C185.828 24.3047 185.618 24.61 185.353 24.8639C184.863 25.3871 184.187 25.6978 183.47 25.7293ZM180.799 13.5664V22.9225C180.779 23.2843 180.834 23.6462 180.959 23.9863C181.084 24.3264 181.278 24.6374 181.527 24.9004C181.777 25.1635 182.077 25.3729 182.411 25.5161C182.744 25.6593 183.103 25.7331 183.466 25.7331C183.829 25.7331 184.189 25.6593 184.522 25.5161C184.855 25.3729 185.156 25.1635 185.406 24.9004C185.655 24.6374 185.849 24.3264 185.974 23.9863C186.099 23.6462 186.153 23.2843 186.134 22.9225V3.36834C186.141 3.01126 186.076 2.65642 185.941 2.32537C185.807 1.99432 185.607 1.69397 185.353 1.44255C185.049 1.15408 184.682 0.940359 184.281 0.81839C183.88 0.696422 183.456 0.669572 183.042 0.739977C182.629 0.810383 182.238 0.9761 181.9 1.22395C181.562 1.47179 181.287 1.79493 181.096 2.16765L173.754 17.2309L173.715 17.1451L166.185 2.09748C165.961 1.67162 165.624 1.31582 165.211 1.06949C164.797 0.82316 164.323 0.695921 163.842 0.701866C163.492 0.701265 163.145 0.769858 162.822 0.90368C162.499 1.0375 162.206 1.2339 161.959 1.48154C161.704 1.73094 161.504 2.02982 161.369 2.35972C161.235 2.68961 161.17 3.04351 161.178 3.39953V22.9693C161.175 23.3199 161.243 23.6676 161.377 23.9917C161.511 24.3158 161.709 24.6098 161.959 24.8561C162.205 25.1071 162.499 25.3057 162.824 25.4398C163.149 25.5738 163.498 25.6405 163.849 25.6357C164.201 25.6399 164.549 25.574 164.875 25.442C165.2 25.31 165.496 25.1144 165.745 24.8668C165.994 24.6192 166.19 24.3245 166.324 24C166.457 23.6755 166.524 23.3277 166.521 22.9771V13.7614L166.607 13.9329L171.231 23.1798C171.437 23.6508 171.779 24.0503 172.213 24.3278C172.646 24.6053 173.153 24.7484 173.668 24.7391C174.125 24.7392 174.574 24.6216 174.972 24.3976C175.371 24.1736 175.704 23.8508 175.941 23.4605L180.799 13.5664Z" fill="#7C4DFF"/>
    <path d="M194.703 25.6435C196.713 25.6435 198.343 24.0168 198.343 22.0102C198.343 20.0036 196.713 18.377 194.703 18.377C192.692 18.377 191.063 20.0036 191.063 22.0102C191.063 24.0168 192.692 25.6435 194.703 25.6435Z" fill="#7C4DFF"/>
    <path d="M194.703 25.7292C193.971 25.7307 193.255 25.5158 192.646 25.1117C192.037 24.7076 191.561 24.1323 191.279 23.4585C190.997 22.7848 190.921 22.0426 191.061 21.3259C191.201 20.6091 191.551 19.9499 192.066 19.4313C192.581 18.9128 193.238 18.5582 193.955 18.4124C194.672 18.2665 195.416 18.3359 196.094 18.6118C196.771 18.8877 197.351 19.3577 197.761 19.9626C198.171 20.5674 198.392 21.2799 198.397 22.0101C198.399 22.4965 198.305 22.9785 198.121 23.4286C197.936 23.8787 197.665 24.2881 197.321 24.6334C196.978 24.9788 196.571 25.2533 196.121 25.4413C195.672 25.6293 195.19 25.7271 194.703 25.7292ZM194.703 18.4626C193.995 18.4626 193.303 18.6721 192.715 19.0644C192.127 19.4568 191.668 20.0145 191.397 20.667C191.127 21.3195 191.056 22.0375 191.194 22.7302C191.332 23.4229 191.673 24.0591 192.173 24.5585C192.673 25.0579 193.311 25.398 194.005 25.5358C194.699 25.6736 195.418 25.6029 196.072 25.3326C196.725 25.0623 197.284 24.6046 197.677 24.0174C198.07 23.4302 198.28 22.7398 198.28 22.0335C198.282 21.5629 198.191 21.0965 198.012 20.661C197.833 20.2256 197.57 19.8295 197.238 19.4957C196.906 19.1618 196.511 18.8967 196.076 18.7154C195.641 18.5341 195.174 18.4403 194.703 18.4392V18.4626Z" fill="#7C4DFF"/>
    <path d="M184.705 34.1964C183.59 32.282 181.992 30.6931 180.07 29.5886C178.147 28.4841 175.968 27.9028 173.75 27.9028C171.532 27.9028 169.352 28.4841 167.43 29.5886C165.507 30.6931 163.909 32.282 162.795 34.1964C161.671 36.1695 161.094 38.4059 161.123 40.6755C161.101 42.9133 161.638 45.1215 162.686 47.1C163.666 48.9571 165.118 50.5245 166.896 51.6455C168.728 52.7549 170.83 53.3415 172.973 53.3415C175.115 53.3415 177.217 52.7549 179.049 51.6455C179.354 51.4506 179.659 51.2478 179.94 51.0295C180.104 51.4958 180.371 51.9195 180.721 52.2692C181.184 52.7391 181.777 53.0604 182.424 53.1923C183.07 53.3241 183.742 53.2604 184.353 53.0093C184.963 52.7582 185.484 52.3312 185.851 51.7827C186.217 51.2342 186.41 50.5892 186.407 49.9302V39.8802C186.3 37.8775 185.716 35.9291 184.705 34.1964ZM179.088 44.0515C178.59 45.0153 177.836 45.8243 176.909 46.3905C175.969 46.9624 174.885 47.2545 173.785 47.2325C172.685 47.2473 171.603 46.9557 170.661 46.3905C169.723 45.8255 168.956 45.0171 168.442 44.0515C167.898 43.0049 167.614 41.843 167.614 40.6638C167.614 39.4846 167.898 38.3227 168.442 37.2761C168.954 36.3091 169.721 35.5002 170.661 34.9371C171.61 34.3897 172.688 34.1015 173.785 34.1015C174.882 34.1015 175.959 34.3897 176.909 34.9371C177.834 35.5061 178.587 36.3143 179.088 37.2761C179.622 38.3286 179.901 39.4918 179.901 40.6716C179.901 41.8514 179.622 43.0146 179.088 44.0671V44.0515Z" fill="#448AFF"/>
    <path d="M208.739 28.8869C207.406 28.1374 205.884 27.7882 204.357 27.8812C202.545 27.8613 200.76 28.3156 199.178 29.1988C198.857 29.3754 198.547 29.5707 198.249 29.7836C198.111 29.4955 197.926 29.2321 197.702 29.0039C197.239 28.5187 196.639 28.1858 195.982 28.0494C195.325 27.913 194.642 27.9796 194.024 28.2404C193.405 28.5011 192.881 28.9436 192.521 29.509C192.161 30.0744 191.982 30.7358 192.008 31.4053V50.0706C191.982 50.5149 192.051 50.9595 192.208 51.3759C192.365 51.7922 192.609 52.1709 192.922 52.4876C193.558 53.0719 194.401 53.3804 195.265 53.3452C195.711 53.3698 196.158 53.3014 196.576 53.1444C196.994 52.9873 197.375 52.7451 197.694 52.433C197.983 52.118 198.207 51.7494 198.353 51.348C198.499 50.9467 198.565 50.5206 198.546 50.094V37.822C198.529 37.3989 198.598 36.9767 198.75 36.5813C198.902 36.1859 199.132 35.8254 199.428 35.5219C200.184 34.8106 201.131 34.3361 202.154 34.1575C203.559 33.8969 205.002 33.9234 206.396 34.2355C206.881 34.3578 207.387 34.3764 207.88 34.2901C208.398 34.2002 208.88 33.965 209.27 33.6117C209.704 33.2188 210 32.6966 210.114 32.1226C210.28 31.5075 210.236 30.8543 209.986 30.2676C209.737 29.6809 209.298 29.1948 208.739 28.8869Z" fill="#448AFF"/>
    <path d="M21.5113 17.7065L24.909 10.7596C25.3621 9.84171 25.4967 8.79952 25.2917 7.79689L24.5106 3.9843C24.3009 2.92191 23.7285 1.96505 22.8909 1.2769C22.0534 0.588744 21.0026 0.21192 19.9178 0.210693H4.74124C3.49829 0.210693 2.30625 0.703555 1.42735 1.58086C0.548455 2.45815 0.0546952 3.64803 0.0546952 4.88872V14.7516C0.0530353 15.6632 0.318293 16.5555 0.817859 17.3188C1.31743 18.082 2.02953 18.6829 2.86662 19.0475L7.5063 21.0513C8.30932 21.3999 9.19296 21.5213 10.0605 21.4021L17.9651 20.2716C18.7208 20.1646 19.4388 19.875 20.0568 19.428C20.6748 18.9809 21.1741 18.39 21.5113 17.7065Z" fill="#7C4DFF"/>
    <path d="M9.37309 21.5112C8.72051 21.5107 8.07482 21.378 7.47504 21.1214L2.84317 19.0864C1.99894 18.7172 1.2806 18.1107 0.775743 17.341C0.270891 16.5712 0.00135172 15.6715 0 14.7515L0 4.89642C0 3.64126 0.49952 2.4375 1.38867 1.54997C2.27782 0.66243 3.48377 0.163818 4.74122 0.163818H19.9178C21.0078 0.169271 22.063 0.54763 22.9074 1.23578C23.7517 1.92393 24.3341 2.88025 24.5575 3.94522L25.3386 7.75781C25.558 8.77659 25.4373 9.83907 24.9949 10.7829L21.5894 17.722C21.25 18.4228 20.7408 19.0279 20.1079 19.4826C19.4751 19.9374 18.7385 20.2273 17.9651 20.3261L10.0683 21.4644C9.83792 21.4962 9.60563 21.5119 9.37309 21.5112ZM4.74122 0.257379C3.50505 0.267662 2.32302 0.76506 1.45255 1.64125C0.582083 2.51744 0.093688 3.70144 0.0937309 4.9354V14.7515C0.096964 15.653 0.361137 16.5345 0.85446 17.2897C1.34778 18.045 2.04924 18.6418 2.87441 19.0085L7.56096 21.0356C8.35645 21.3816 9.23257 21.5004 10.0917 21.3787L17.9651 20.2715C18.7144 20.1606 19.4256 19.8699 20.0378 19.4245C20.6499 18.9792 21.1448 18.3923 21.48 17.7142H21.5191H21.48L24.8777 10.7751C25.3271 9.85042 25.4589 8.80373 25.2527 7.7968L24.4716 3.98421C24.2537 2.93697 23.6829 1.99587 22.8543 1.31773C22.0257 0.639581 20.9893 0.265346 19.9178 0.257379H4.74122Z" fill="#7C4DFF"/>
    <path d="M28.4005 3.95313L27.6194 7.76572C27.4073 8.77831 27.542 9.83269 28.0021 10.7597L31.3999 17.7065C31.737 18.39 32.2363 18.9809 32.8543 19.428C33.4723 19.875 34.1904 20.1646 34.946 20.2716L42.8507 21.41C43.7189 21.5267 44.6026 21.4026 45.4048 21.0513L50.0523 19.0242C50.8894 18.6595 51.6015 18.0586 52.1011 17.2954C52.6007 16.5322 52.8659 15.6399 52.8643 14.7282V4.89653C52.8643 3.65584 52.3705 2.46597 51.4916 1.58867C50.6127 0.711368 49.4207 0.218507 48.1777 0.218507H32.9933C31.914 0.217919 30.8676 0.589197 30.0308 1.26963C29.194 1.95006 28.6182 2.89793 28.4005 3.95313Z" fill="#7C4DFF"/>
    <path d="M43.5224 21.5112C43.2951 21.5112 43.0681 21.4955 42.8429 21.4644L34.9382 20.3261C34.1731 20.22 33.4462 19.9267 32.822 19.4723C32.1979 19.018 31.6959 18.4167 31.3608 17.722L27.9553 10.7829C27.5082 9.85486 27.374 8.80732 27.5726 7.7968L28.3536 3.98421C28.5691 2.91205 29.1482 1.94676 29.9933 1.25091C30.8383 0.555052 31.8978 0.171138 32.9933 0.163818H48.1699C49.4274 0.163818 50.6333 0.66243 51.5225 1.54997C52.4116 2.4375 52.9111 3.64126 52.9111 4.89642V14.7515C52.9098 15.6715 52.6402 16.5712 52.1354 17.341C51.6305 18.1107 50.9122 18.7172 50.068 19.0864L45.4205 21.1214C44.8207 21.378 44.175 21.5107 43.5224 21.5112ZM28.4005 3.95302L27.6194 7.76561C27.4174 8.7709 27.5519 9.8146 28.0021 10.7362L31.3999 17.6752C31.7338 18.3655 32.2326 18.9633 32.8523 19.416C33.472 19.8688 34.1937 20.1625 34.9539 20.2715L42.8585 21.4098C43.7191 21.5267 44.5952 21.4025 45.3892 21.0512L50.0758 19.0241C50.901 18.6574 51.6024 18.0606 52.0957 17.3053C52.5891 16.5501 52.8532 15.6686 52.8565 14.7671V4.89642C52.8462 3.6625 52.3479 2.48262 51.4701 1.61373C50.5923 0.744843 49.4061 0.257336 48.1699 0.257379H32.9933C31.9251 0.264199 30.8912 0.635097 30.0631 1.30863C29.2349 1.98216 28.6621 2.91789 28.4396 3.96081L28.4005 3.95302Z" fill="#7C4DFF"/>
    <path d="M14.8407 29.729L9.52931 24.5442C8.64985 23.6927 7.4739 23.2148 6.24873 23.2109H4.68654C3.4436 23.2109 2.25155 23.7038 1.37266 24.5811C0.49376 25.4584 0 26.6483 0 27.889L0 48.2618C0 49.5024 0.49376 50.6923 1.37266 51.5696C2.25155 52.4469 3.4436 52.9398 4.68654 52.9398C5.40757 52.9489 6.12099 52.7919 6.77127 52.4809C7.42156 52.1698 7.99117 51.7132 8.43578 51.1465L13.9034 44.1295C14.3832 43.5235 14.7053 42.8083 14.8407 42.0478L16.2076 33.8534C16.3309 33.1069 16.271 32.3416 16.0329 31.6232C15.7948 30.9049 15.3857 30.2549 14.8407 29.729Z" fill="#7C4DFF"/>
    <path d="M4.74128 53.0177C4.11668 53.0177 3.49823 52.8945 2.92146 52.6552C2.3447 52.4159 1.82099 52.0653 1.38042 51.6233C0.939847 51.1814 0.5911 50.6569 0.354214 50.08C0.117328 49.5031 -0.00302909 48.8852 5.79116e-05 48.2617V27.9045C0.00401645 26.66 0.497333 25.4668 1.37383 24.5816C2.25033 23.6965 3.43993 23.1903 4.6866 23.1719H6.24878C7.48796 23.1668 8.67873 23.6518 9.56061 24.5207L14.8876 29.7056C15.4342 30.2386 15.8439 30.8954 16.0819 31.6202C16.3199 32.345 16.3791 33.1164 16.2546 33.869L14.8798 42.0555C14.7531 42.8352 14.4306 43.5701 13.9425 44.1918L8.47489 51.2089C8.03349 51.7763 7.46709 52.2346 6.81961 52.5483C6.17213 52.862 5.46097 53.0226 4.74128 53.0177ZM6.24878 23.2577H4.6866C3.46536 23.282 2.3019 23.7814 1.44403 24.6493C0.586166 25.5173 0.101688 26.6853 0.0937888 27.9045V48.2617C0.0924002 49.2283 0.3935 50.1711 0.955027 50.9586C1.51655 51.746 2.31046 52.3387 3.22585 52.6539C4.14124 52.969 5.1324 52.9909 6.06086 52.7165C6.98932 52.4421 7.80872 51.885 8.4046 51.1231L13.8722 44.1061C14.3508 43.4952 14.6678 42.774 14.7939 42.0088L16.1608 33.8144C16.2783 33.0826 16.2199 32.3333 15.9904 31.6285C15.7609 30.9236 15.3668 30.2832 14.8408 29.7601L9.51374 24.5753C8.6412 23.7249 7.46829 23.2515 6.24878 23.2577Z" fill="#7C4DFF"/>
    <path d="M36.6644 33.8535L38.0391 42.0478C38.1647 42.8193 38.4846 43.5463 38.9686 44.1607L44.4363 51.1778C44.8744 51.7385 45.4349 52.1922 46.0751 52.5043C46.7153 52.8164 47.4184 52.9787 48.1308 52.9788C49.3738 52.9788 50.5658 52.4859 51.4447 51.6086C52.3236 50.7313 52.8174 49.5415 52.8174 48.3008V27.9046C52.8174 26.6639 52.3236 25.474 51.4447 24.5967C50.5658 23.7194 49.3738 23.2266 48.1308 23.2266H46.6389C45.4084 23.2264 44.2261 23.7046 43.3427 24.5598L38.0157 29.7446C37.4758 30.2704 37.0711 30.9185 36.8358 31.6338C36.6006 32.3492 36.5418 33.1106 36.6644 33.8535Z" fill="#7C4DFF"/>
    <path d="M48.1308 53.0177C47.4105 53.0216 46.6989 52.8598 46.0514 52.5448C45.4039 52.2297 44.8378 51.7699 44.3972 51.201L38.9296 44.184C38.4458 43.5597 38.1238 42.8259 37.9923 42.0477L36.6254 33.8611C36.4944 33.1092 36.5498 32.3366 36.7867 31.6109C37.0236 30.8852 37.4348 30.2284 37.9845 29.6977L43.3115 24.5129C44.1962 23.6482 45.3851 23.164 46.6233 23.1641H48.1855C49.4322 23.1824 50.6218 23.6887 51.4983 24.5738C52.3748 25.4589 52.8681 26.6521 52.872 27.8967V48.2617C52.8751 48.8851 52.7548 49.503 52.5179 50.0799C52.281 50.6568 51.9323 51.1813 51.4917 51.6233C51.0511 52.0652 50.5274 52.4159 49.9506 52.6552C49.3739 52.8945 48.7554 53.0177 48.1308 53.0177ZM36.7113 33.8456L38.0782 42.0399C38.2066 42.8044 38.5233 43.5251 38.9999 44.1372L44.4675 51.1542C45.0754 51.8986 45.898 52.4381 46.8237 52.6996C47.7493 52.9612 48.7332 52.932 49.6417 52.6161C50.5502 52.3002 51.3393 51.7128 51.9019 50.9338C52.4644 50.1548 52.7731 49.2219 52.7861 48.2617V27.9045C52.776 26.6799 52.2852 25.5082 51.4192 24.6408C50.5532 23.7735 49.381 23.2797 48.1543 23.2654H46.5921C45.378 23.2633 44.2114 23.7364 43.3427 24.5831L38.0157 29.7679C37.4889 30.2949 37.0957 30.9398 36.8688 31.6491C36.642 32.3583 36.5879 33.1113 36.7113 33.8456Z" fill="#7C4DFF"/>
    <path d="M24.2138 39.7634L17.6526 43.2251C16.7274 43.7149 15.9932 44.5 15.5671 45.455L15.1844 46.3048C14.8648 47.018 14.7292 47.7996 14.79 48.5785C14.8508 49.3573 15.1061 50.1086 15.5325 50.7637C15.9589 51.4188 16.5429 51.9569 17.2311 52.3288C17.9193 52.7008 18.6899 52.8947 19.4726 52.893H33.376C34.16 52.8946 34.9319 52.6998 35.621 52.3265C36.3101 51.9532 36.8943 51.4133 37.3202 50.7562C37.7461 50.0991 38 49.3459 38.0588 48.5655C38.1175 47.7851 37.9791 47.0024 37.6564 46.2892L37.2658 45.4238C36.8364 44.4775 36.1061 43.6991 35.1881 43.2095L28.6426 39.7634C27.9616 39.399 27.2009 39.2083 26.4282 39.2083C25.6555 39.2083 24.8948 39.399 24.2138 39.7634Z" fill="#7C4DFF"/>
    <path d="M33.376 52.9397H19.4726C18.6836 52.9385 17.9075 52.7409 17.2144 52.3646C16.5213 51.9883 15.9333 51.4453 15.5035 50.7849C15.0738 50.1244 14.816 49.3674 14.7535 48.5823C14.6909 47.7973 14.8256 47.0091 15.1453 46.2891L15.5281 45.4393C15.9537 44.4731 16.6942 43.679 17.6292 43.1861L24.2138 39.6931V39.7633V39.7243C24.899 39.3598 25.6635 39.1692 26.4399 39.1692C27.2163 39.1692 27.9808 39.3598 28.666 39.7243L35.2116 43.2016C36.1366 43.6978 36.8723 44.4842 37.3049 45.4393L37.6954 46.3047C38.0205 47.0246 38.1596 47.8144 38.1 48.6017C38.0405 49.3891 37.7842 50.1491 37.3546 50.8121C36.925 51.4751 36.3357 52.0201 35.6407 52.3972C34.9457 52.7744 34.1671 52.9716 33.376 52.9709V52.9397ZM26.4399 39.2253C25.677 39.2247 24.9257 39.4122 24.2529 39.7711L17.6683 43.264C16.7614 43.7547 16.0421 44.5302 15.6218 45.4705L15.2469 46.3203C14.9303 47.0267 14.7957 47.8008 14.8554 48.5723C14.9152 49.3439 15.1673 50.0882 15.5889 50.7376C16.0104 51.387 16.588 51.9208 17.2691 52.2905C17.9501 52.6601 18.713 52.8538 19.4882 52.854H33.3916C34.1642 52.8446 34.9225 52.6446 35.5989 52.272C36.2754 51.8993 36.849 51.3655 37.2688 50.718C37.6886 50.0706 37.9416 49.3295 38.0051 48.5609C38.0686 47.7923 37.9408 47.0199 37.6329 46.3125L37.2424 45.4471C36.8086 44.5025 36.0721 43.7289 35.1491 43.2484L28.6192 39.7633C27.9487 39.4062 27.1998 39.2213 26.4399 39.2253Z" fill="#7C4DFF"/>
  </g>
  <defs>
    <clipPath id="clip0_107_50">
      <rect width="230" height="54" fill="white"/>
    </clipPath>
  </defs>
</svg>
