<svg width="73" height="282" viewBox="0 0 73 282" fill="none"
  xmlns="http://www.w3.org/2000/svg">
  <circle cx="66.3956" cy="6.11538" r="6.11538" transform="rotate(90 66.3956 6.11538)" fill="#F4F2FF"/>
  <circle cx="66.3956" cy="6.11538" r="6.11538" transform="rotate(90 66.3956 6.11538)" fill="#F4F2FF"/>
  <circle cx="66.3956" cy="6.11538" r="6.11538" transform="rotate(90 66.3956 6.11538)" fill="#F4F2FF"/>
  <circle cx="66.3956" cy="30.5771" r="6.11538" transform="rotate(90 66.3956 30.5771)" fill="#F4F2FF"/>
  <circle cx="66.3956" cy="30.5771" r="6.11538" transform="rotate(90 66.3956 30.5771)" fill="#F4F2FF"/>
  <circle cx="66.3956" cy="30.5771" r="6.11538" transform="rotate(90 66.3956 30.5771)" fill="#F4F2FF"/>
  <circle cx="66.3956" cy="55.0385" r="6.11538" transform="rotate(90 66.3956 55.0385)" fill="#F4F2FF"/>
  <circle cx="66.3956" cy="55.0385" r="6.11538" transform="rotate(90 66.3956 55.0385)" fill="#F4F2FF"/>
  <circle cx="66.3956" cy="55.0385" r="6.11538" transform="rotate(90 66.3956 55.0385)" fill="#F4F2FF"/>
  <circle cx="66.3956" cy="79.4999" r="6.11538" transform="rotate(90 66.3956 79.4999)" fill="#F4F2FF"/>
  <circle cx="66.3956" cy="79.4999" r="6.11538" transform="rotate(90 66.3956 79.4999)" fill="#F4F2FF"/>
  <circle cx="66.3956" cy="79.4999" r="6.11538" transform="rotate(90 66.3956 79.4999)" fill="#F4F2FF"/>
  <circle cx="66.3956" cy="103.962" r="6.11538" transform="rotate(90 66.3956 103.962)" fill="#F4F2FF"/>
  <circle cx="66.3956" cy="103.962" r="6.11538" transform="rotate(90 66.3956 103.962)" fill="#F4F2FF"/>
  <circle cx="66.3956" cy="103.962" r="6.11538" transform="rotate(90 66.3956 103.962)" fill="#F4F2FF"/>
  <circle cx="66.3956" cy="128.423" r="6.11538" transform="rotate(90 66.3956 128.423)" fill="#F4F2FF"/>
  <circle cx="66.3956" cy="128.423" r="6.11538" transform="rotate(90 66.3956 128.423)" fill="#F4F2FF"/>
  <circle cx="66.3956" cy="128.423" r="6.11538" transform="rotate(90 66.3956 128.423)" fill="#F4F2FF"/>
  <circle cx="66.3956" cy="152.885" r="6.11538" transform="rotate(90 66.3956 152.885)" fill="#F4F2FF"/>
  <circle cx="66.3956" cy="152.885" r="6.11538" transform="rotate(90 66.3956 152.885)" fill="#F4F2FF"/>
  <circle cx="66.3956" cy="152.885" r="6.11538" transform="rotate(90 66.3956 152.885)" fill="#F4F2FF"/>
  <circle cx="46.3021" cy="6.11538" r="6.11538" transform="rotate(90 46.3021 6.11538)" fill="#F4F2FF"/>
  <circle cx="46.3021" cy="6.11538" r="6.11538" transform="rotate(90 46.3021 6.11538)" fill="#F4F2FF"/>
  <circle cx="46.3021" cy="6.11538" r="6.11538" transform="rotate(90 46.3021 6.11538)" fill="#F4F2FF"/>
  <circle cx="46.3021" cy="30.5771" r="6.11538" transform="rotate(90 46.3021 30.5771)" fill="#F4F2FF"/>
  <circle cx="46.3021" cy="30.5771" r="6.11538" transform="rotate(90 46.3021 30.5771)" fill="#F4F2FF"/>
  <circle cx="46.3021" cy="30.5771" r="6.11538" transform="rotate(90 46.3021 30.5771)" fill="#F4F2FF"/>
  <circle cx="46.3021" cy="55.0385" r="6.11538" transform="rotate(90 46.3021 55.0385)" fill="#F4F2FF"/>
  <circle cx="46.3021" cy="55.0385" r="6.11538" transform="rotate(90 46.3021 55.0385)" fill="#F4F2FF"/>
  <circle cx="46.3021" cy="55.0385" r="6.11538" transform="rotate(90 46.3021 55.0385)" fill="#F4F2FF"/>
  <circle cx="46.3021" cy="79.4999" r="6.11538" transform="rotate(90 46.3021 79.4999)" fill="#F4F2FF"/>
  <circle cx="46.3021" cy="79.4999" r="6.11538" transform="rotate(90 46.3021 79.4999)" fill="#F4F2FF"/>
  <circle cx="46.3021" cy="79.4999" r="6.11538" transform="rotate(90 46.3021 79.4999)" fill="#F4F2FF"/>
  <circle cx="46.3021" cy="103.962" r="6.11538" transform="rotate(90 46.3021 103.962)" fill="#F4F2FF"/>
  <circle cx="46.3021" cy="103.962" r="6.11538" transform="rotate(90 46.3021 103.962)" fill="#F4F2FF"/>
  <circle cx="46.3021" cy="103.962" r="6.11538" transform="rotate(90 46.3021 103.962)" fill="#F4F2FF"/>
  <circle cx="46.3021" cy="128.423" r="6.11538" transform="rotate(90 46.3021 128.423)" fill="#F4F2FF"/>
  <circle cx="46.3021" cy="128.423" r="6.11538" transform="rotate(90 46.3021 128.423)" fill="#F4F2FF"/>
  <circle cx="46.3021" cy="128.423" r="6.11538" transform="rotate(90 46.3021 128.423)" fill="#F4F2FF"/>
  <circle cx="46.3021" cy="152.885" r="6.11538" transform="rotate(90 46.3021 152.885)" fill="#F4F2FF"/>
  <circle cx="46.3021" cy="152.885" r="6.11538" transform="rotate(90 46.3021 152.885)" fill="#F4F2FF"/>
  <circle cx="46.3021" cy="152.885" r="6.11538" transform="rotate(90 46.3021 152.885)" fill="#F4F2FF"/>
  <circle cx="26.2088" cy="6.11538" r="6.11538" transform="rotate(90 26.2088 6.11538)" fill="#F4F2FF"/>
  <circle cx="26.2088" cy="6.11538" r="6.11538" transform="rotate(90 26.2088 6.11538)" fill="#F4F2FF"/>
  <circle cx="26.2088" cy="6.11538" r="6.11538" transform="rotate(90 26.2088 6.11538)" fill="#F4F2FF"/>
  <circle cx="26.2091" cy="30.5771" r="6.11538" transform="rotate(90 26.2091 30.5771)" fill="#F4F2FF"/>
  <circle cx="26.2091" cy="30.5771" r="6.11538" transform="rotate(90 26.2091 30.5771)" fill="#F4F2FF"/>
  <circle cx="26.2091" cy="30.5771" r="6.11538" transform="rotate(90 26.2091 30.5771)" fill="#F4F2FF"/>
  <circle cx="26.2091" cy="55.0385" r="6.11538" transform="rotate(90 26.2091 55.0385)" fill="#F4F2FF"/>
  <circle cx="26.2091" cy="55.0385" r="6.11538" transform="rotate(90 26.2091 55.0385)" fill="#F4F2FF"/>
  <circle cx="26.2091" cy="55.0385" r="6.11538" transform="rotate(90 26.2091 55.0385)" fill="#F4F2FF"/>
  <circle cx="26.2091" cy="79.4999" r="6.11538" transform="rotate(90 26.2091 79.4999)" fill="#F4F2FF"/>
  <circle cx="26.2091" cy="79.4999" r="6.11538" transform="rotate(90 26.2091 79.4999)" fill="#F4F2FF"/>
  <circle cx="26.2091" cy="79.4999" r="6.11538" transform="rotate(90 26.2091 79.4999)" fill="#F4F2FF"/>
  <circle cx="26.2091" cy="103.962" r="6.11538" transform="rotate(90 26.2091 103.962)" fill="#F4F2FF"/>
  <circle cx="26.2091" cy="103.962" r="6.11538" transform="rotate(90 26.2091 103.962)" fill="#F4F2FF"/>
  <circle cx="26.2091" cy="103.962" r="6.11538" transform="rotate(90 26.2091 103.962)" fill="#F4F2FF"/>
  <circle cx="26.2091" cy="128.423" r="6.11538" transform="rotate(90 26.2091 128.423)" fill="#F4F2FF"/>
  <circle cx="26.2091" cy="128.423" r="6.11538" transform="rotate(90 26.2091 128.423)" fill="#F4F2FF"/>
  <circle cx="26.2091" cy="128.423" r="6.11538" transform="rotate(90 26.2091 128.423)" fill="#F4F2FF"/>
  <circle cx="26.2091" cy="152.885" r="6.11538" transform="rotate(90 26.2091 152.885)" fill="#F4F2FF"/>
  <circle cx="26.2091" cy="152.885" r="6.11538" transform="rotate(90 26.2091 152.885)" fill="#F4F2FF"/>
  <circle cx="26.2091" cy="152.885" r="6.11538" transform="rotate(90 26.2091 152.885)" fill="#F4F2FF"/>
  <circle cx="6.11533" cy="6.11538" r="6.11538" transform="rotate(90 6.11533 6.11538)" fill="#F4F2FF"/>
  <circle cx="6.11533" cy="6.11538" r="6.11538" transform="rotate(90 6.11533 6.11538)" fill="#F4F2FF"/>
  <circle cx="6.11533" cy="6.11538" r="6.11538" transform="rotate(90 6.11533 6.11538)" fill="#F4F2FF"/>
  <circle cx="6.11533" cy="30.5771" r="6.11538" transform="rotate(90 6.11533 30.5771)" fill="#F4F2FF"/>
  <circle cx="6.11533" cy="30.5771" r="6.11538" transform="rotate(90 6.11533 30.5771)" fill="#F4F2FF"/>
  <circle cx="6.11533" cy="30.5771" r="6.11538" transform="rotate(90 6.11533 30.5771)" fill="#F4F2FF"/>
  <circle cx="6.11533" cy="55.0385" r="6.11538" transform="rotate(90 6.11533 55.0385)" fill="#F4F2FF"/>
  <circle cx="6.11533" cy="55.0385" r="6.11538" transform="rotate(90 6.11533 55.0385)" fill="#F4F2FF"/>
  <circle cx="6.11533" cy="55.0385" r="6.11538" transform="rotate(90 6.11533 55.0385)" fill="#F4F2FF"/>
  <circle cx="6.11533" cy="79.4999" r="6.11538" transform="rotate(90 6.11533 79.4999)" fill="#F4F2FF"/>
  <circle cx="6.11533" cy="79.4999" r="6.11538" transform="rotate(90 6.11533 79.4999)" fill="#F4F2FF"/>
  <circle cx="6.11533" cy="79.4999" r="6.11538" transform="rotate(90 6.11533 79.4999)" fill="#F4F2FF"/>
  <circle cx="6.11533" cy="103.962" r="6.11538" transform="rotate(90 6.11533 103.962)" fill="#F4F2FF"/>
  <circle cx="6.11533" cy="103.962" r="6.11538" transform="rotate(90 6.11533 103.962)" fill="#F4F2FF"/>
  <circle cx="6.11533" cy="103.962" r="6.11538" transform="rotate(90 6.11533 103.962)" fill="#F4F2FF"/>
  <circle cx="6.11533" cy="128.423" r="6.11538" transform="rotate(90 6.11533 128.423)" fill="#F4F2FF"/>
  <circle cx="6.11533" cy="128.423" r="6.11538" transform="rotate(90 6.11533 128.423)" fill="#F4F2FF"/>
  <circle cx="6.11533" cy="128.423" r="6.11538" transform="rotate(90 6.11533 128.423)" fill="#F4F2FF"/>
  <circle cx="6.11533" cy="152.885" r="6.11538" transform="rotate(90 6.11533 152.885)" fill="#F4F2FF"/>
  <circle cx="6.11533" cy="152.885" r="6.11538" transform="rotate(90 6.11533 152.885)" fill="#F4F2FF"/>
  <circle cx="6.11533" cy="152.885" r="6.11538" transform="rotate(90 6.11533 152.885)" fill="#F4F2FF"/>
  <circle cx="66.3956" cy="153.115" r="6.11538" transform="rotate(90 66.3956 153.115)" fill="#F4F2FF"/>
  <circle cx="66.3956" cy="153.115" r="6.11538" transform="rotate(90 66.3956 153.115)" fill="#F4F2FF"/>
  <circle cx="66.3956" cy="153.115" r="6.11538" transform="rotate(90 66.3956 153.115)" fill="#F4F2FF"/>
  <circle cx="66.3956" cy="177.577" r="6.11538" transform="rotate(90 66.3956 177.577)" fill="#F4F2FF"/>
  <circle cx="66.3956" cy="177.577" r="6.11538" transform="rotate(90 66.3956 177.577)" fill="#F4F2FF"/>
  <circle cx="66.3956" cy="177.577" r="6.11538" transform="rotate(90 66.3956 177.577)" fill="#F4F2FF"/>
  <circle cx="66.3956" cy="202.038" r="6.11538" transform="rotate(90 66.3956 202.038)" fill="#F4F2FF"/>
  <circle cx="66.3956" cy="202.038" r="6.11538" transform="rotate(90 66.3956 202.038)" fill="#F4F2FF"/>
  <circle cx="66.3956" cy="202.038" r="6.11538" transform="rotate(90 66.3956 202.038)" fill="#F4F2FF"/>
  <circle cx="66.3956" cy="226.5" r="6.11538" transform="rotate(90 66.3956 226.5)" fill="#F4F2FF"/>
  <circle cx="66.3956" cy="226.5" r="6.11538" transform="rotate(90 66.3956 226.5)" fill="#F4F2FF"/>
  <circle cx="66.3956" cy="226.5" r="6.11538" transform="rotate(90 66.3956 226.5)" fill="#F4F2FF"/>
  <circle cx="66.3956" cy="250.962" r="6.11538" transform="rotate(90 66.3956 250.962)" fill="#F4F2FF"/>
  <circle cx="66.3956" cy="250.962" r="6.11538" transform="rotate(90 66.3956 250.962)" fill="#F4F2FF"/>
  <circle cx="66.3956" cy="250.962" r="6.11538" transform="rotate(90 66.3956 250.962)" fill="#F4F2FF"/>
  <circle cx="66.3956" cy="275.423" r="6.11538" transform="rotate(90 66.3956 275.423)" fill="#F4F2FF"/>
  <circle cx="66.3956" cy="275.423" r="6.11538" transform="rotate(90 66.3956 275.423)" fill="#F4F2FF"/>
  <circle cx="66.3956" cy="275.423" r="6.11538" transform="rotate(90 66.3956 275.423)" fill="#F4F2FF"/>
  <circle cx="46.3021" cy="153.115" r="6.11538" transform="rotate(90 46.3021 153.115)" fill="#F4F2FF"/>
  <circle cx="46.3021" cy="153.115" r="6.11538" transform="rotate(90 46.3021 153.115)" fill="#F4F2FF"/>
  <circle cx="46.3021" cy="153.115" r="6.11538" transform="rotate(90 46.3021 153.115)" fill="#F4F2FF"/>
  <circle cx="46.3021" cy="177.577" r="6.11538" transform="rotate(90 46.3021 177.577)" fill="#F4F2FF"/>
  <circle cx="46.3021" cy="177.577" r="6.11538" transform="rotate(90 46.3021 177.577)" fill="#F4F2FF"/>
  <circle cx="46.3021" cy="177.577" r="6.11538" transform="rotate(90 46.3021 177.577)" fill="#F4F2FF"/>
  <circle cx="46.3021" cy="202.038" r="6.11538" transform="rotate(90 46.3021 202.038)" fill="#F4F2FF"/>
  <circle cx="46.3021" cy="202.038" r="6.11538" transform="rotate(90 46.3021 202.038)" fill="#F4F2FF"/>
  <circle cx="46.3021" cy="202.038" r="6.11538" transform="rotate(90 46.3021 202.038)" fill="#F4F2FF"/>
  <circle cx="46.3021" cy="226.5" r="6.11538" transform="rotate(90 46.3021 226.5)" fill="#F4F2FF"/>
  <circle cx="46.3021" cy="226.5" r="6.11538" transform="rotate(90 46.3021 226.5)" fill="#F4F2FF"/>
  <circle cx="46.3021" cy="226.5" r="6.11538" transform="rotate(90 46.3021 226.5)" fill="#F4F2FF"/>
  <circle cx="46.3021" cy="250.962" r="6.11538" transform="rotate(90 46.3021 250.962)" fill="#F4F2FF"/>
  <circle cx="46.3021" cy="250.962" r="6.11538" transform="rotate(90 46.3021 250.962)" fill="#F4F2FF"/>
  <circle cx="46.3021" cy="250.962" r="6.11538" transform="rotate(90 46.3021 250.962)" fill="#F4F2FF"/>
  <circle cx="46.3021" cy="275.423" r="6.11538" transform="rotate(90 46.3021 275.423)" fill="#F4F2FF"/>
  <circle cx="46.3021" cy="275.423" r="6.11538" transform="rotate(90 46.3021 275.423)" fill="#F4F2FF"/>
  <circle cx="46.3021" cy="275.423" r="6.11538" transform="rotate(90 46.3021 275.423)" fill="#F4F2FF"/>
  <circle cx="26.2088" cy="153.115" r="6.11538" transform="rotate(90 26.2088 153.115)" fill="#F4F2FF"/>
  <circle cx="26.2088" cy="153.115" r="6.11538" transform="rotate(90 26.2088 153.115)" fill="#F4F2FF"/>
  <circle cx="26.2088" cy="153.115" r="6.11538" transform="rotate(90 26.2088 153.115)" fill="#F4F2FF"/>
  <circle cx="26.2091" cy="177.577" r="6.11538" transform="rotate(90 26.2091 177.577)" fill="#F4F2FF"/>
  <circle cx="26.2091" cy="177.577" r="6.11538" transform="rotate(90 26.2091 177.577)" fill="#F4F2FF"/>
  <circle cx="26.2091" cy="177.577" r="6.11538" transform="rotate(90 26.2091 177.577)" fill="#F4F2FF"/>
  <circle cx="26.2091" cy="202.038" r="6.11538" transform="rotate(90 26.2091 202.038)" fill="#F4F2FF"/>
  <circle cx="26.2091" cy="202.038" r="6.11538" transform="rotate(90 26.2091 202.038)" fill="#F4F2FF"/>
  <circle cx="26.2091" cy="202.038" r="6.11538" transform="rotate(90 26.2091 202.038)" fill="#F4F2FF"/>
  <circle cx="26.2091" cy="226.5" r="6.11538" transform="rotate(90 26.2091 226.5)" fill="#F4F2FF"/>
  <circle cx="26.2091" cy="226.5" r="6.11538" transform="rotate(90 26.2091 226.5)" fill="#F4F2FF"/>
  <circle cx="26.2091" cy="226.5" r="6.11538" transform="rotate(90 26.2091 226.5)" fill="#F4F2FF"/>
  <circle cx="26.2091" cy="250.962" r="6.11538" transform="rotate(90 26.2091 250.962)" fill="#F4F2FF"/>
  <circle cx="26.2091" cy="250.962" r="6.11538" transform="rotate(90 26.2091 250.962)" fill="#F4F2FF"/>
  <circle cx="26.2091" cy="250.962" r="6.11538" transform="rotate(90 26.2091 250.962)" fill="#F4F2FF"/>
  <circle cx="26.2091" cy="275.423" r="6.11538" transform="rotate(90 26.2091 275.423)" fill="#F4F2FF"/>
  <circle cx="26.2091" cy="275.423" r="6.11538" transform="rotate(90 26.2091 275.423)" fill="#F4F2FF"/>
  <circle cx="26.2091" cy="275.423" r="6.11538" transform="rotate(90 26.2091 275.423)" fill="#F4F2FF"/>
  <circle cx="6.11533" cy="153.115" r="6.11538" transform="rotate(90 6.11533 153.115)" fill="#F4F2FF"/>
  <circle cx="6.11533" cy="153.115" r="6.11538" transform="rotate(90 6.11533 153.115)" fill="#F4F2FF"/>
  <circle cx="6.11533" cy="153.115" r="6.11538" transform="rotate(90 6.11533 153.115)" fill="#F4F2FF"/>
  <circle cx="6.11533" cy="177.577" r="6.11538" transform="rotate(90 6.11533 177.577)" fill="#F4F2FF"/>
  <circle cx="6.11533" cy="177.577" r="6.11538" transform="rotate(90 6.11533 177.577)" fill="#F4F2FF"/>
  <circle cx="6.11533" cy="177.577" r="6.11538" transform="rotate(90 6.11533 177.577)" fill="#F4F2FF"/>
  <circle cx="6.11533" cy="202.038" r="6.11538" transform="rotate(90 6.11533 202.038)" fill="#F4F2FF"/>
  <circle cx="6.11533" cy="202.038" r="6.11538" transform="rotate(90 6.11533 202.038)" fill="#F4F2FF"/>
  <circle cx="6.11533" cy="202.038" r="6.11538" transform="rotate(90 6.11533 202.038)" fill="#F4F2FF"/>
  <circle cx="6.11533" cy="226.5" r="6.11538" transform="rotate(90 6.11533 226.5)" fill="#F4F2FF"/>
  <circle cx="6.11533" cy="226.5" r="6.11538" transform="rotate(90 6.11533 226.5)" fill="#F4F2FF"/>
  <circle cx="6.11533" cy="226.5" r="6.11538" transform="rotate(90 6.11533 226.5)" fill="#F4F2FF"/>
  <circle cx="6.11533" cy="250.962" r="6.11538" transform="rotate(90 6.11533 250.962)" fill="#F4F2FF"/>
  <circle cx="6.11533" cy="250.962" r="6.11538" transform="rotate(90 6.11533 250.962)" fill="#F4F2FF"/>
  <circle cx="6.11533" cy="250.962" r="6.11538" transform="rotate(90 6.11533 250.962)" fill="#F4F2FF"/>
  <circle cx="6.11533" cy="275.423" r="6.11538" transform="rotate(90 6.11533 275.423)" fill="#F4F2FF"/>
  <circle cx="6.11533" cy="275.423" r="6.11538" transform="rotate(90 6.11533 275.423)" fill="#F4F2FF"/>
  <circle cx="6.11533" cy="275.423" r="6.11538" transform="rotate(90 6.11533 275.423)" fill="#F4F2FF"/>
</svg>
