<svg width="290" height="295" viewBox="0 0 290 295" fill="none"
  xmlns="http://www.w3.org/2000/svg">
  <path d="M151.304 3.84783L186.128 78.8804C190.331 87.8587 198.137 93.6304 207.143 94.913L284.596 107.098C290 107.739 292.402 115.435 288.199 119.924L232.36 178.283C225.756 185.337 222.754 194.957 224.555 204.576L237.764 286.663C238.965 292.435 232.961 296.924 227.557 294.359L158.509 255.239C150.704 250.75 141.097 250.75 132.692 255.239L63.6439 294.359C58.8406 296.924 52.8364 292.435 53.4368 286.663L66.0455 203.935C67.8468 194.315 64.8447 184.696 58.2402 177.641L2.40164 119.283C-1.80125 115.435 -1.14113e-05 107.739 6.00413 107.098L83.4575 94.913C92.4638 93.6304 100.269 87.2174 104.472 78.8804L139.296 3.84783C141.097 -1.28261 148.302 -1.28261 151.304 3.84783Z" fill="#F4F2FF"/>
</svg>
