<svg width="280" height="280" viewBox="0 0 280 280" fill="none"
  xmlns="http://www.w3.org/2000/svg">
  <rect width="280" height="280" rx="15" fill="white"/>
  <path d="M252.97 23H250.97C245.97 23 243.97 25 243.97 30V36C243.97 41 245.97 43 250.97 43H256.97C261.97 43 263.97 41 263.97 36V34" stroke="#7C4DFF" stroke-width="1.5" stroke-linecap="round" stroke-linejoin="round"/>
  <path d="M263.88 24.56C262.65 27.63 259.56 31.81 256.98 33.88L255.4 35.14C255.2 35.29 255 35.41 254.77 35.5C254.77 35.35 254.76 35.2 254.74 35.04C254.65 34.37 254.35 33.74 253.81 33.21C253.26 32.66 252.6 32.35 251.92 32.26C251.76 32.25 251.6 32.24 251.44 32.25C251.53 32 251.66 31.77 251.83 31.58L253.09 30C255.16 27.42 259.35 24.31 262.41 23.08C262.88 22.9 263.34 23.04 263.63 23.33C263.93 23.63 264.07 24.09 263.88 24.56Z" stroke="#7C4DFF" stroke-width="1.5" stroke-linecap="round" stroke-linejoin="round"/>
  <path d="M257.82 32.9799C257.82 30.8899 256.13 29.1899 254.03 29.1899M254.78 35.4899C254.78 36.3699 254.44 37.2099 253.81 37.8499C253.32 38.3399 252.66 38.6799 251.87 38.7799L249.9 38.9899C249.647 39.017 249.391 38.9869 249.151 38.9018C248.911 38.8167 248.693 38.6789 248.514 38.4984C248.335 38.318 248.198 38.0996 248.114 37.8592C248.03 37.6189 248.002 37.3629 248.03 37.1099L248.24 35.1399C248.43 33.3899 249.89 32.2699 251.45 32.2399C251.61 32.2299 251.77 32.2399 251.93 32.2499C252.61 32.3399 253.27 32.6499 253.82 33.1999C254.36 33.7399 254.66 34.3599 254.75 35.0299C254.77 35.1899 254.78 35.3499 254.78 35.4899V35.4899Z" stroke="#7C4DFF" stroke-width="1.5" stroke-linecap="round" stroke-linejoin="round"/>
  <rect x="116.401" y="98" width="46.4897" height="25.974" rx="10" fill="#FFDB1C"/>
  <rect x="116.418" y="155.664" width="46.4897" height="25.974" rx="10" fill="#FF903F"/>
  <rect x="90.8452" y="126.832" width="46.4897" height="25.974" rx="10" fill="#5CE900"/>
  <rect x="67.2554" y="155.664" width="46.4897" height="25.974" rx="10" fill="#7C4DFF"/>
  <rect x="142.612" y="126.832" width="46.4897" height="25.974" rx="10" fill="#448AFF"/>
  <rect x="166.202" y="155.664" width="46.4897" height="25.974" rx="10" fill="#FFDB1C"/>
</svg>
