<svg width="280" height="280" viewBox="0 0 280 280" fill="none"
  xmlns="http://www.w3.org/2000/svg">
  <rect width="280" height="280" rx="15" fill="white"/>
  <rect x="124.813" y="125" width="30.0441" height="30.0441" rx="10" fill="#CD15FF"/>
  <rect x="87.5361" y="125" width="30.0441" height="30.0441" rx="10" fill="#5CE900"/>
  <rect x="49.6382" y="125.064" width="30.0441" height="30.0441" rx="10" fill="#7C4DFF"/>
  <rect x="162.09" y="125" width="30.0441" height="30.0441" rx="10" fill="#448AFF"/>
  <rect x="198.956" y="125.064" width="30.0441" height="30.0441" rx="10" fill="#FFDB1C"/>
  <path d="M254.24 19H247.76C244 19 243.71 22.38 245.74 24.22L256.26 33.78C258.29 35.62 258 39 254.24 39H247.76C244 39 243.71 35.62 245.74 33.78L256.26 24.22C258.29 22.38 258 19 254.24 19Z" stroke="#7C4DFF" stroke-width="1.5" stroke-linecap="round" stroke-linejoin="round"/>
</svg>
