<svg width="280" height="280" viewBox="0 0 280 280" fill="none"
  xmlns="http://www.w3.org/2000/svg">
  <rect width="280" height="280" rx="15" fill="#F4F2FF"/>
  <path d="M131.551 95.9003L137.337 83.2772C138.071 81.6136 138.347 79.6566 137.979 77.7973L136.694 70.8498C135.959 66.8378 132.653 64 128.888 64H102.99C98.5816 64 95 67.8163 95 72.5133V90.4205C95 93.8453 96.8367 96.8788 99.7755 98.2487L107.673 101.967C109.051 102.652 110.52 102.848 111.99 102.554L125.49 100.499C128.153 100.206 130.449 98.4444 131.551 95.9003Z" fill="#7C4DFF"/>
  <path d="M143.306 70.85L142.02 77.7976C141.653 79.6568 141.929 81.516 142.663 83.2774L148.449 95.9005C149.643 98.4447 151.847 100.206 154.51 100.597L168.01 102.652C169.48 102.848 170.949 102.652 172.326 102.065L180.224 98.3468C183.163 96.9769 185 93.9434 185 90.5185V72.6113C185 67.9143 181.418 64.0981 177.01 64.0981H151.112C147.347 64.0981 144.041 66.9358 143.306 70.85Z" fill="#FF903F"/>
  <path d="M120.255 117.722L111.163 108.328C109.694 106.762 107.673 105.881 105.561 105.881H102.99C98.5816 105.881 95 109.698 95 114.395V151.481C95 156.178 98.5816 159.994 102.99 159.994C105.469 159.994 107.765 158.82 109.326 156.765L118.602 144.044C119.429 142.968 119.98 141.598 120.163 140.228L122.459 125.354C122.918 122.517 122.092 119.679 120.255 117.722Z" fill="#5CE900"/>
  <path d="M157.357 125.256L159.653 140.13C159.836 141.5 160.387 142.87 161.214 143.946L170.489 156.667C172.051 158.722 174.347 159.897 176.826 159.897C181.234 159.897 184.816 156.08 184.816 151.383V114.395C184.816 109.698 181.234 105.881 176.826 105.881H174.255C172.142 105.881 170.122 106.762 168.653 108.328L159.561 117.722C157.816 119.679 156.989 122.517 157.357 125.256Z" fill="#FFDB1C"/>
  <path d="M136.235 135.922L125.031 142.283C123.47 143.164 122.184 144.631 121.449 146.295L120.806 147.86C118.419 153.536 122.368 159.799 128.153 159.799H151.847C157.633 159.799 161.49 153.438 159.102 147.763L158.459 146.197C157.725 144.436 156.531 143.066 154.878 142.185L143.674 135.922C141.378 134.552 138.531 134.552 136.235 135.922Z" fill="#CD15FF"/>
  <rect x="33" y="182" width="213" height="12" rx="6" fill="#D9D9D9"/>
  <rect x="67" y="206" width="145" height="12" rx="6" fill="#D9D9D9"/>
  <path d="M257 18H255C250 18 248 20 248 25V31C248 36 250 38 255 38H261C266 38 268 36 268 31V29" stroke="#448AFF" stroke-width="1.5" stroke-linecap="round" stroke-linejoin="round"/>
  <path d="M262.04 19.02L254.16 26.9C253.86 27.2 253.56 27.79 253.5 28.22L253.07 31.23C252.91 32.32 253.68 33.08 254.77 32.93L257.78 32.5C258.2 32.44 258.79 32.14 259.1 31.84L266.98 23.96C268.34 22.6 268.98 21.02 266.98 19.02C264.98 17.02 263.4 17.66 262.04 19.02V19.02Z" stroke="#448AFF" stroke-width="1.5" stroke-miterlimit="10" stroke-linecap="round" stroke-linejoin="round"/>
  <path d="M260.91 20.15C261.242 21.3275 261.87 22.4001 262.735 23.265C263.6 24.13 264.672 24.7584 265.85 25.09" stroke="#448AFF" stroke-width="1.5" stroke-miterlimit="10" stroke-linecap="round" stroke-linejoin="round"/>
</svg>
